<?xml version="1.0" encoding="UTF-8" standalone="no"?>
<!-- Created with Inkscape (http://www.inkscape.org/) -->

<svg
   xmlns:dc="http://purl.org/dc/elements/1.1/"
   xmlns:cc="http://creativecommons.org/ns#"
   xmlns:rdf="http://www.w3.org/1999/02/22-rdf-syntax-ns#"
   xmlns:svg="http://www.w3.org/2000/svg"
   xmlns="http://www.w3.org/2000/svg"
   xmlns:sodipodi="http://sodipodi.sourceforge.net/DTD/sodipodi-0.dtd"
   xmlns:inkscape="http://www.inkscape.org/namespaces/inkscape"
   width="104.39813mm"
   height="55.938099mm"
   viewBox="0 0 104.39813 55.938099"
   version="1.1"
   id="svg8"
   inkscape:version="0.92.4 (5da689c313, 2019-01-14)"
   sodipodi:docname="logo.svg">
  <defs
     id="defs2" />
  <sodipodi:namedview
     id="base"
     pagecolor="#ffffff"
     bordercolor="#666666"
     borderopacity="1.0"
     inkscape:pageopacity="0.0"
     inkscape:pageshadow="2"
     inkscape:zoom="1.4"
     inkscape:cx="90.809436"
     inkscape:cy="102.90657"
     inkscape:document-units="mm"
     inkscape:current-layer="layer1"
     showgrid="false"
     fit-margin-top="0"
     fit-margin-left="0"
     fit-margin-right="0"
     fit-margin-bottom="0"
     inkscape:window-width="1920"
     inkscape:window-height="1017"
     inkscape:window-x="-8"
     inkscape:window-y="1072"
     inkscape:window-maximized="1" />
  <metadata
     id="metadata5">
    <rdf:RDF>
      <cc:Work
         rdf:about="">
        <dc:format>image/svg+xml</dc:format>
        <dc:type
           rdf:resource="http://purl.org/dc/dcmitype/StillImage" />
        <dc:title></dc:title>
      </cc:Work>
    </rdf:RDF>
  </metadata>
  <g
     inkscape:label="Capa 1"
     inkscape:groupmode="layer"
     id="layer1"
     transform="translate(-56.162086,-101.76555)">
    <path
       style="fill:#ffffff;stroke-width:0.26458332"
       d="m 69.931346,157.54892 c -5.164085,-0.92493 -9.496422,-4.17884 -11.721441,-8.80369 -1.842968,-3.83074 -2.462298,-8.00246 -1.775369,-11.95867 0.607127,-3.49661 1.097913,-4.82486 3.568066,-9.65653 5.94672,-11.63191 6.95165,-13.74568 8.993884,-18.91771 2.609284,-6.60811 2.471981,-6.32899 3.164242,-6.43235 0.709798,-0.10599 0.926195,0.25805 2.997171,5.04202 l 1.688883,3.90133 39.524508,0.001 c 30.43872,9.8e-4 39.7734,0.0758 40.6072,0.32565 1.6199,0.48534 2.96544,1.97126 3.3378,3.68607 0.2177,1.00259 0.2825,5.52859 0.22288,15.56872 -0.0834,14.05185 -0.0884,14.16325 -0.67338,15.2574 -0.64261,1.20188 -1.5599,1.95572 -2.95588,2.42921 -0.66001,0.22386 -9.99061,0.30843 -35.0573,0.31775 l -34.157911,0.0127 -1.058333,1.47816 c -2.250613,3.14339 -6.195243,6.0963 -9.624444,7.20475 -1.986283,0.64204 -5.168078,0.88647 -7.080576,0.54392 z m 5.080905,-1.60148 c 3.948068,-0.72112 7.819528,-3.54303 11.309035,-8.24317 l 0.734486,-0.98931 34.909358,-0.069 34.90935,-0.069 0.99657,-0.9966 0.99657,-0.99659 v -15.07243 -15.07243 l -0.99658,-0.9966 -0.99657,-0.99659 -40.30583,-0.0687 c -37.921506,-0.0646 -40.329794,-0.0959 -40.710849,-0.52917 -0.222758,-0.25328 -1.096315,-2.03922 -1.941235,-3.96875 -0.844921,-1.92953 -1.61227,-3.41781 -1.705221,-3.30729 -0.09295,0.11051 -0.977284,2.225 -1.96518,4.69886 -1.913525,4.79176 -4.552979,10.32398 -8.205227,17.19791 -1.237088,2.32834 -2.596406,5.18756 -3.020708,6.35383 -3.742285,10.28637 1.051129,21.00396 10.285937,22.99832 2.1376,0.46164 3.684392,0.49599 5.706094,0.12672 z m -6.061721,-3.67529 c -4.257042,-1.36008 -7.241095,-5.08607 -8.121293,-10.14053 -0.167828,-0.96375 -0.263945,-1.85223 -0.21359,-1.97439 0.0773,-0.18753 22.669315,4.57865 22.9381,4.83919 0.05081,0.0493 -0.227832,0.67789 -0.619201,1.39696 -0.80204,1.47361 -2.644969,3.44812 -4.25762,4.5616 -2.587474,1.78656 -6.569374,2.3258 -9.726396,1.31717 z m 14.775419,-12.4408 c -0.436563,-0.11854 -5.63466,-1.2651 -11.551328,-2.54791 l -10.75758,-2.33238 0.650145,-1.7277 c 0.613576,-1.63053 2.543429,-5.45019 2.98387,-5.90583 0.186084,-0.19251 15.676828,3.00244 16.776327,3.4601 0.947246,0.39428 3.089191,6.38609 3.089191,8.64161 0,0.72947 -0.0096,0.7328 -1.190625,0.41211 z m 8.334375,-0.9035 c 0,-0.0665 1.737992,-3.39042 3.862208,-7.38646 5.446488,-10.24585 6.130778,-10.88568 12.111018,-11.32407 1.91051,-0.14005 4.67493,-0.21956 6.14316,-0.17669 l 2.66952,0.078 -1.60259,3.77031 -1.6026,3.77031 h -2.88777 c -4.32523,0 -4.29692,-0.0263 -7.69577,7.14375 l -1.94404,4.10104 -4.526568,0.0724 c -2.489612,0.0398 -4.526568,0.018 -4.526568,-0.0485 z m 20.807596,-5.37413 c 1.2356,-3.02371 2.98272,-7.3125 3.88249,-9.53065 l 1.63596,-4.033 3.24114,-0.002 c 1.78263,-10e-4 3.239,0.0279 3.23637,0.0643 -0.003,0.0364 -1.64302,4.29287 -3.64531,9.45886 l -3.64054,9.3927 -3.47832,0.0737 -3.47832,0.0737 2.24653,-5.49764 z m 14.37754,4.76286 c -0.002,-0.40453 -0.17956,-4.06926 -0.39361,-8.14384 -0.21404,-4.07458 -0.39063,-8.03341 -0.39243,-8.7974 l -0.003,-1.38906 h 3.30729 3.30729 l 0.0262,2.4474 c 0.0144,1.34606 0.10369,3.09427 0.19844,3.8849 l 0.17227,1.43751 2.11666,-3.88229 2.11667,-3.8823 3.10885,-0.003 c 1.70987,-0.001 3.107,0.0867 3.10473,0.19583 -0.002,0.10914 -2.25151,4.36562 -4.99831,9.45885 l -4.99418,9.26042 -3.33607,0.074 -3.33606,0.074 -0.004,-0.73551 z m 10.85236,0.44435 c 0,-0.16014 1.6855,-4.44994 3.74554,-9.5329 l 3.74553,-9.24175 h 3.13364 c 1.90591,0 3.13363,0.10333 3.13363,0.26373 0,0.24312 -1.08043,3.1182 -5.41912,14.42065 l -1.62507,4.23333 -3.35707,0.074 c -2.3108,0.051 -3.35708,-0.0167 -3.35708,-0.21711 z M 72.74574,123.62117 c -2.692135,-0.59218 -4.932561,-1.10467 -4.978725,-1.13886 -0.04617,-0.0342 0.227787,-0.67732 0.608785,-1.42918 0.380994,-0.75186 1.208029,-2.75799 1.837851,-4.45808 2.035794,-5.49523 2.239717,-6.0069 2.253718,-5.65484 0.03109,0.7816 4.239229,10.2286 5.535957,12.42786 0.798743,1.35466 0.803,1.38023 0.225653,1.35526 -0.323647,-0.014 -2.791103,-0.50997 -5.483239,-1.10216 z m 24.077081,29.8349 c 0,-1.65806 -0.0237,-1.71979 -0.661455,-1.71979 -0.411576,0 -0.661459,-0.14993 -0.661459,-0.39688 0,-0.30868 0.352777,-0.39687 1.587504,-0.39687 1.23472,0 1.5875,0.0882 1.5875,0.39687 0,0.22049 -0.23519,0.39688 -0.52917,0.39688 -0.47489,0 -0.52917,0.17639 -0.52917,1.71979 0,1.35232 -0.0848,1.71979 -0.39687,1.71979 -0.31208,0 -0.39688,-0.36747 -0.39688,-1.71979 z m 2.55764,1.5434 c -0.097,-0.097 -0.17639,-1.04951 -0.17639,-2.11666 v -1.94028 h 1.455209 c 1.11713,0 1.45521,0.0922 1.45521,0.39687 0,0.27719 -0.27928,0.39688 -0.92604,0.39688 -0.64676,0 -0.92604,0.11969 -0.92604,0.39687 0,0.26459 0.26458,0.39688 0.79375,0.39688 0.52916,0 0.79375,0.13229 0.79375,0.39687 0,0.26669 -0.26674,0.39688 -0.81315,0.39688 -1.168179,0 -0.97332,0.8936 0.22,1.00895 0.53075,0.0513 0.85773,0.22781 0.85773,0.46302 0,0.278 -0.34355,0.38011 -1.27882,0.38011 -0.70335,0 -1.358189,-0.0794 -1.455209,-0.17639 z m 3.830109,-0.27328 c -0.86954,-0.71049 -1.0148,-2.15635 -0.30702,-3.05614 0.45072,-0.573 0.79296,-0.72752 1.61139,-0.72752 0.74728,0 1.03913,0.11147 1.03913,0.39687 0,0.25829 -0.2587,0.39688 -0.74083,0.39688 -0.89334,0 -1.37583,0.42947 -1.37583,1.22464 0,0.86055 0.73777,1.49261 1.51465,1.29762 0.52073,-0.13069 0.62756,-0.0707 0.55511,0.3116 -0.12644,0.66716 -1.55248,0.76406 -2.2966,0.15605 z m 3.04906,0.27328 c -0.097,-0.097 -0.17639,-1.04951 -0.17639,-2.11666 0,-1.76389 0.0481,-1.94028 0.52917,-1.94028 0.41157,0 0.52916,0.17639 0.52916,0.79375 0,0.70556 0.0882,0.79375 0.79375,0.79375 0.70556,0 0.79375,-0.0882 0.79375,-0.79375 0,-0.62281 0.11636,-0.79375 0.5403,-0.79375 0.50412,0 0.53512,0.1371 0.46302,2.04765 -0.0643,1.70324 -0.15516,2.06252 -0.5403,2.13607 -0.37108,0.0709 -0.46302,-0.0993 -0.46302,-0.85703 0,-0.8741 -0.0599,-0.94544 -0.79375,-0.94544 -0.73075,0 -0.79375,0.0735 -0.79375,0.92604 0,0.87153 -0.41085,1.22075 -0.88194,0.74965 z m 4.32153,-1.94027 c 0,-2.03251 0.0242,-2.11667 0.60873,-2.11667 0.45895,0 0.76806,0.30924 1.2562,1.25677 l 0.64747,1.25677 0.0812,-1.25677 c 0.057,-0.8821 0.19521,-1.25677 0.46359,-1.25677 0.30159,0 0.38238,0.44724 0.38238,2.11667 0,1.93428 -0.0452,2.11666 -0.52471,2.11666 -0.36363,0 -0.74944,-0.42641 -1.25677,-1.38906 l -0.73206,-1.38906 -0.08,1.38906 c -0.0575,0.99922 -0.18748,1.38906 -0.46303,1.38906 -0.30242,0 -0.38304,-0.44553 -0.38304,-2.11666 z m 4.23333,0 c 0,-1.94028 0.0441,-2.11667 0.52917,-2.11667 0.48507,0 0.52916,0.17639 0.52916,2.11667 0,1.94027 -0.0441,2.11666 -0.52916,2.11666 -0.48507,0 -0.52917,-0.17639 -0.52917,-2.11666 z m 2.25337,1.48367 c -1.37313,-1.37313 -0.46377,-3.60034 1.47,-3.60034 0.74728,0 1.03913,0.11147 1.03913,0.39687 0,0.25829 -0.2587,0.39688 -0.74083,0.39688 -0.93757,0 -1.37584,0.43531 -1.37584,1.36652 0,0.84715 0.78958,1.40027 1.62182,1.13613 0.43004,-0.13649 0.52416,-0.0705 0.45086,0.31607 -0.15229,0.8032 -1.65721,0.79579 -2.46514,-0.0122 z m 2.83898,0.30226 c 0.067,-0.1819 0.38714,-1.1344 0.71134,-2.11666 0.48768,-1.47758 0.68892,-1.78594 1.16556,-1.78594 0.47227,0 0.69031,0.32188 1.20974,1.78594 0.34849,0.98226 0.68758,1.93476 0.75354,2.11666 0.17394,0.47972 -0.90638,0.41421 -1.09071,-0.0662 -0.089,-0.232 -0.48549,-0.39687 -0.95435,-0.39687 -0.53655,0 -0.80205,0.13138 -0.80205,0.39687 0,0.22721 -0.23833,0.39688 -0.55748,0.39688 -0.33459,0 -0.50874,-0.13223 -0.43559,-0.33073 z m 2.212,-1.67528 c -0.0883,-0.23018 -0.1606,-0.52784 -0.1606,-0.66146 0,-0.13362 -0.11906,-0.24294 -0.26458,-0.24294 -0.14552,0 -0.26459,0.29765 -0.26459,0.66145 0,0.43115 0.14805,0.66146 0.42519,0.66146 0.279,0 0.36997,-0.14388 0.26458,-0.41851 z m 2.22065,-0.11065 c 0,-1.67419 0.0803,-2.11667 0.38425,-2.11667 0.28656,0 0.40428,0.42044 0.46302,1.65365 0.0755,1.58479 0.10906,1.65713 0.80638,1.73736 1.27408,0.1466 0.89164,0.84232 -0.46302,0.84232 h -1.19063 z m 4.93047,1.56829 c -0.88943,-0.69963 -0.9771,-2.34666 -0.16797,-3.15579 0.50612,-0.50613 2.33134,-0.75547 2.7158,-0.37101 0.40489,0.40489 -0.15008,0.78456 -1.0015,0.68516 -0.76735,-0.0896 -0.95331,-0.007 -1.14355,0.50717 -0.12496,0.33778 -0.17056,0.83072 -0.10134,1.09542 0.14391,0.55031 1.00766,1.09315 1.37659,0.86514 0.35696,-0.22061 0.0205,-0.9298 -0.44115,-0.9298 -0.75597,0 -0.16321,-0.66247 0.66605,-0.74437 0.82953,-0.0819 0.83952,-0.0689 0.83952,1.09362 0,0.99645 -0.0911,1.20095 -0.59532,1.33607 -0.99439,0.26649 -1.41919,0.19099 -2.14713,-0.38161 z m 3.448,0.37198 c -0.097,-0.097 -0.17639,-1.04951 -0.17639,-2.11666 v -1.94028 h 1.27 c 1.76263,0 2.39354,0.81242 1.60787,2.07046 -0.22934,0.36724 -0.19762,0.6682 0.13909,1.31933 0.42019,0.81256 0.41678,0.84354 -0.093,0.84354 -0.32036,0 -0.69113,-0.31321 -0.93963,-0.79375 -0.22576,-0.43656 -0.52647,-0.79375 -0.66825,-0.79375 -0.14179,0 -0.25779,0.35719 -0.25779,0.79375 0,0.74643 -0.44287,1.05644 -0.88195,0.61736 z m 2.02603,-2.57586 c 0.17842,-0.46494 -0.0348,-0.68733 -0.65901,-0.68733 -0.30868,0 -0.48507,0.19242 -0.48507,0.52917 0,0.61634 0.91949,0.74345 1.14408,0.15816 z m 2.19889,2.20388 c -0.88944,-0.69963 -0.9771,-2.34666 -0.16797,-3.15579 0.72374,-0.72375 2.39424,-0.71655 3.05461,0.0131 0.76016,0.83995 0.64636,2.30286 -0.23832,3.06383 -0.89779,0.77224 -1.73508,0.79716 -2.64832,0.0788 z m 2.06209,-0.66115 c 0.84895,-0.84895 0.21684,-2.34979 -0.92197,-2.18904 -1.19417,0.16856 -0.90322,2.60481 0.31108,2.60481 0.10731,0 0.38221,-0.18709 0.61089,-0.41577 z m 2.44115,0.72567 c -0.59798,-0.66076 -0.63176,-3.74948 -0.041,-3.74948 0.30357,0 0.39687,0.33448 0.39687,1.42281 0,1.61308 0.48977,2.33385 1.19063,1.75219 0.26274,-0.21806 0.39687,-0.81025 0.39687,-1.75219 0,-1.24642 0.0656,-1.42281 0.52917,-1.42281 0.46341,0 0.52916,0.17639 0.52916,1.41953 0,1.03546 -0.14836,1.60814 -0.54837,2.11666 -0.65241,0.82941 -1.80506,0.92962 -2.45333,0.21329 z m 3.79545,-1.63281 v -2.11667 h 1.17173 c 1.16088,0 2.00327,0.48386 2.00327,1.15065 0,0.71541 -0.83574,1.49518 -1.6025,1.49518 -0.68889,0 -0.77875,0.0916 -0.77875,0.79375 0,0.52917 -0.13229,0.79375 -0.39687,0.79375 -0.3197,0 -0.39688,-0.41157 -0.39688,-2.11666 z m 1.98438,-0.79375 c 0,-0.21828 -0.26789,-0.43493 -0.59531,-0.48143 -0.45818,-0.0651 -0.59532,0.0458 -0.59532,0.48143 0,0.43559 0.13714,0.54649 0.59532,0.48142 0.32742,-0.0465 0.59531,-0.26314 0.59531,-0.48142 z"
       id="path4533"
       inkscape:connector-curvature="0" />
  </g>
</svg>
